<svg width="14" height="14" viewBox="0 0 14 14" fill="none" xmlns="http://www.w3.org/2000/svg">
<path d="M6.33334 9.00065H7.66668V10.334H6.33334V9.00065ZM6.33334 3.66732H7.66668V7.66732H6.33334V3.66732ZM6.99334 0.333984C3.31334 0.333984 0.333344 3.32065 0.333344 7.00065C0.333344 10.6807 3.31334 13.6673 6.99334 13.6673C10.68 13.6673 13.6667 10.6807 13.6667 7.00065C13.6667 3.32065 10.68 0.333984 6.99334 0.333984ZM7.00001 12.334C4.05334 12.334 1.66668 9.94732 1.66668 7.00065C1.66668 4.05398 4.05334 1.66732 7.00001 1.66732C9.94668 1.66732 12.3333 4.05398 12.3333 7.00065C12.3333 9.94732 9.94668 12.334 7.00001 12.334Z" fill="#6D747A"/>
</svg>
